<svg xmlns="http://www.w3.org/2000/svg" version="1.1" xmlns:xlink="http://www.w3.org/1999/xlink" xmlns:svgjs="http://svgjs.dev/svgjs" width="2000" height="1999" viewBox="0 0 2000 1999"><g transform="matrix(1,0,0,1,-0.4314868804665366,-0.4312711370263287)"><svg viewBox="0 0 343 343" data-background-color="#ffffff" preserveAspectRatio="xMidYMid meet" height="1999" width="2000" xmlns="http://www.w3.org/2000/svg" xmlns:xlink="http://www.w3.org/1999/xlink"><g id="tight-bounds" transform="matrix(1,0,0,1,0.07400000000001228,0.07400000000001228)"><svg viewBox="0 0 342.8515585177538 342.8515585177538" height="342.8515585177538" width="342.8515585177538"><g><svg></svg></g><g><svg viewBox="0 0 342.8515585177538 342.8515585177538" height="342.8515585177538" width="342.8515585177538"><g><path d="M0 171.426c0-94.676 76.75-171.426 171.426-171.426 94.676 0 171.426 76.75 171.426 171.426 0 94.676-76.75 171.426-171.426 171.426-94.676 0-171.426-76.75-171.426-171.426zM171.426 339.506c92.828 0 168.08-75.252 168.08-168.08 0-92.828-75.252-168.08-168.08-168.08-92.828 0-168.08 75.252-168.08 168.08 0 92.828 75.252 168.08 168.08 168.08z" data-fill-palette-color="tertiary" fill="#e64980" stroke="transparent"></path><ellipse rx="164.56874808852183" ry="164.56874808852183" cx="171.4257792588769" cy="171.4257792588769" fill="#e64980" stroke="transparent" stroke-width="0" fill-opacity="1" data-fill-palette-color="tertiary"></ellipse></g><g transform="matrix(1,0,0,1,64.84655864529836,96.87130209305218)"><svg viewBox="0 0 213.15844122715708 149.10895433164944" height="149.10895433164944" width="213.15844122715708"><g><svg viewBox="0 0 213.15844122715708 149.10895433164944" height="149.10895433164944" width="213.15844122715708"><g><svg viewBox="0 0 213.15844122715708 149.10895433164944" height="149.10895433164944" width="213.15844122715708"><g transform="matrix(1,0,0,1,0,90.18747851264797)"><svg viewBox="0 0 213.15844122715708 58.921475819001486" height="58.921475819001486" width="213.15844122715708"><g id="textblocktransform"><svg viewBox="0 0 213.15844122715708 58.921475819001486" height="58.921475819001486" width="213.15844122715708" id="textblock"><g><svg viewBox="0 0 213.15844122715708 37.09821807717816" height="37.09821807717816" width="213.15844122715708"><g transform="matrix(1,0,0,1,0,0)"><svg width="213.15844122715708" viewBox="2.15 -34.8 204.53 35.599999999999994" height="37.09821807717816" data-palette-color="#ffffff"><path d="M16.1 0.8L16.1 0.8Q11.9 0.8 8.78-0.88 5.65-2.55 3.9-5.9 2.15-9.25 2.15-14.15L2.15-14.15Q2.15-18.65 3.58-22.43 5-26.2 7.6-28.98 10.2-31.75 13.8-33.27 17.4-34.8 21.8-34.8L21.8-34.8Q25.9-34.8 27.95-33.93 30-33.05 30-30.8L30-30.8Q30-29.6 29.58-28.75 29.15-27.9 28.65-27.9L28.65-27.9Q28.2-27.9 27.63-28.2 27.05-28.5 26.35-28.85L26.35-28.85Q25.15-29.45 23.73-30.13 22.3-30.8 19.95-30.8L19.95-30.8Q16.9-30.8 14.38-28.8 11.85-26.8 10.33-23.28 8.8-19.75 8.8-15.05L8.8-15.05Q8.8-11.1 9.98-8.45 11.15-5.8 13.1-4.5 15.05-3.2 17.35-3.2L17.35-3.2Q19.25-3.2 20.75-3.93 22.25-4.65 23.38-5.6 24.5-6.55 25.4-7.28 26.3-8 27-8L27-8Q27.55-8 27.93-7.75 28.3-7.5 28.3-6.7L28.3-6.7Q28.3-4.75 26.65-3.05 25-1.35 22.25-0.28 19.5 0.8 16.1 0.8ZM39.45 0.75L39.45 0.75Q35.15 0.75 32.77-1.78 30.4-4.3 30.4-9.2L30.4-9.2Q30.4-12.45 31.47-15.23 32.55-18 34.4-20.1 36.25-22.2 38.67-23.38 41.1-24.55 43.8-24.55L43.8-24.55Q48.1-24.55 50.37-22 52.65-19.45 52.65-14.3L52.65-14.3Q52.65-11.2 51.62-8.47 50.6-5.75 48.8-3.68 47-1.6 44.6-0.43 42.2 0.75 39.45 0.75ZM40.65-3L40.65-3Q42.55-3 43.92-4.4 45.3-5.8 46.02-8.25 46.75-10.7 46.75-13.75L46.75-13.75Q46.75-17 45.77-18.9 44.8-20.8 42.55-20.8L42.55-20.8Q40.7-20.8 39.27-19.4 37.85-18 37.07-15.58 36.3-13.15 36.3-10.05L36.3-10.05Q36.3-6.6 37.4-4.8 38.5-3 40.65-3ZM63.85 0.75L63.85 0.75Q59.55 0.75 57.17-1.78 54.8-4.3 54.8-9.2L54.8-9.2Q54.8-12.45 55.87-15.23 56.95-18 58.8-20.1 60.65-22.2 63.07-23.38 65.5-24.55 68.2-24.55L68.2-24.55Q72.5-24.55 74.77-22 77.05-19.45 77.05-14.3L77.05-14.3Q77.05-11.2 76.02-8.47 75-5.75 73.2-3.68 71.4-1.6 69-0.43 66.59 0.75 63.85 0.75ZM65.05-3L65.05-3Q66.95-3 68.32-4.4 69.7-5.8 70.42-8.25 71.15-10.7 71.15-13.75L71.15-13.75Q71.15-17 70.17-18.9 69.2-20.8 66.95-20.8L66.95-20.8Q65.09-20.8 63.67-19.4 62.25-18 61.47-15.58 60.7-13.15 60.7-10.05L60.7-10.05Q60.7-6.6 61.8-4.8 62.9-3 65.05-3ZM97.34 0.55L97.34 0.55Q96.24 0.55 95.09-0.5 93.94-1.55 92.84-3.28 91.74-5 90.77-7.1 89.79-9.2 89.09-11.35L89.09-11.35Q88.89-11.95 88.64-12.8 88.39-13.65 88.39-14.45L88.39-14.45Q88.39-15 88.57-15.48 88.74-15.95 89.09-16.5L89.09-16.5Q90.09-18.1 91.52-19.55 92.94-21 94.64-22.13 96.34-23.25 98.14-23.88 99.94-24.5 101.64-24.5L101.64-24.5Q102.99-24.5 103.42-23.85 103.84-23.2 103.84-22.05L103.84-22.05Q103.84-20.95 103.57-20.13 103.29-19.3 102.89-18.85 102.49-18.4 102.14-18.4L102.14-18.4Q101.49-18.4 100.64-18.8 99.79-19.2 98.59-19.2L98.59-19.2Q96.54-19.2 94.82-17.88 93.09-16.55 92.14-14.95L92.14-14.95 92.64-17.1Q94.79-11.35 96.59-8.45 98.39-5.55 99.69-4.2L99.69-4.2Q100.54-3.35 101.19-3.03 101.84-2.7 101.84-2.2L101.84-2.2Q101.84-1.55 101.02-0.93 100.19-0.3 99.14 0.13 98.09 0.55 97.34 0.55ZM85.69 0.7L82.19 0.7Q81.29 0.7 80.79-0.4 80.29-1.5 80.34-2.95L80.34-2.95Q80.39-4.65 80.64-7 80.89-9.35 81.14-11.65L81.14-11.65 82.54-23.45Q82.84-25.7 82.69-27.45 82.54-29.2 82.29-30.55 82.04-31.9 82.04-32.85L82.04-32.85Q82.04-33.4 82.92-33.83 83.79-34.25 84.94-34.52 86.09-34.8 86.89-34.8L86.89-34.8Q87.74-34.8 88.39-33.58 89.04-32.35 89.04-30.75L89.04-30.75Q89.04-30.4 88.94-28.8 88.84-27.2 88.54-25.15L88.54-25.15 86.94-13.65Q86.44-10.05 86.24-6.48 86.04-2.9 85.69 0.7L85.69 0.7ZM107.34 0.4L107.34 0.4Q106.44 0.4 106.09-0.4 105.74-1.2 105.74-2.55L105.74-2.55Q105.74-3.55 105.89-4.8L105.89-4.8 109.09-34Q110.99-34.2 113.12-34.35 115.24-34.5 117.69-34.5L117.69-34.5Q122.24-34.5 124.99-33.68 127.74-32.85 128.99-31.15 130.24-29.45 130.24-26.9L130.24-26.9Q130.24-23.95 128.52-21.8 126.79-19.65 123.99-18.25L123.99-18.25 122.34-17.4Q120.99-16.75 119.94-16.32 118.89-15.9 117.99-15.9L117.99-15.9Q117.04-15.9 116.04-16.53 115.04-17.15 115.04-17.7L115.04-17.7Q115.04-18.15 115.27-18.32 115.49-18.5 115.89-18.6L115.89-18.6Q117.69-19.05 119.57-19.98 121.44-20.9 122.72-22.4 123.99-23.9 123.99-26.15L123.99-26.15Q123.99-28.65 121.79-29.7 119.59-30.75 114.64-30.75L114.64-30.75 112.29-7.95Q112.24-7.45 112.22-6.98 112.19-6.5 112.19-6L112.19-6Q112.19-5.45 112.24-4.88 112.29-4.3 112.34-3.75L112.34-3.75Q118.29-3.75 121.34-5.58 124.39-7.4 124.39-11.1L124.39-11.1Q124.39-13.4 123.17-15.1 121.94-16.8 119.89-17.45L119.89-17.45 123.34-19.25Q125.79-18.65 127.52-17.43 129.24-16.2 130.14-14.55 131.04-12.9 131.04-10.85L131.04-10.85Q131.04-7.7 129.47-5.25 127.89-2.8 124.74-1.4 121.59 0 116.94 0L116.94 0Q115.94 0 114.49 0.05 113.04 0.1 111.57 0.2 110.09 0.3 108.92 0.35 107.74 0.4 107.34 0.4ZM142.29 0.75L142.29 0.75Q137.99 0.75 135.61-1.78 133.24-4.3 133.24-9.2L133.24-9.2Q133.24-12.45 134.31-15.23 135.39-18 137.24-20.1 139.09-22.2 141.51-23.38 143.94-24.55 146.64-24.55L146.64-24.55Q150.94-24.55 153.21-22 155.49-19.45 155.49-14.3L155.49-14.3Q155.49-11.2 154.46-8.47 153.44-5.75 151.64-3.68 149.84-1.6 147.44-0.43 145.04 0.75 142.29 0.75ZM143.49-3L143.49-3Q145.39-3 146.76-4.4 148.14-5.8 148.86-8.25 149.59-10.7 149.59-13.75L149.59-13.75Q149.59-17 148.61-18.9 147.64-20.8 145.39-20.8L145.39-20.8Q143.54-20.8 142.11-19.4 140.69-18 139.91-15.58 139.14-13.15 139.14-10.05L139.14-10.05Q139.14-6.6 140.24-4.8 141.34-3 143.49-3ZM166.69 0.75L166.69 0.75Q162.39 0.75 160.01-1.78 157.64-4.3 157.64-9.2L157.64-9.2Q157.64-12.45 158.71-15.23 159.79-18 161.64-20.1 163.49-22.2 165.91-23.38 168.34-24.55 171.04-24.55L171.04-24.55Q175.34-24.55 177.61-22 179.89-19.45 179.89-14.3L179.89-14.3Q179.89-11.2 178.86-8.47 177.84-5.75 176.04-3.68 174.24-1.6 171.84-0.43 169.44 0.75 166.69 0.75ZM167.89-3L167.89-3Q169.79-3 171.16-4.4 172.54-5.8 173.26-8.25 173.99-10.7 173.99-13.75L173.99-13.75Q173.99-17 173.01-18.9 172.04-20.8 169.79-20.8L169.79-20.8Q167.94-20.8 166.51-19.4 165.09-18 164.31-15.58 163.54-13.15 163.54-10.05L163.54-10.05Q163.54-6.6 164.64-4.8 165.74-3 167.89-3ZM200.18 0.55L200.18 0.55Q199.08 0.55 197.93-0.5 196.78-1.55 195.68-3.28 194.58-5 193.61-7.1 192.63-9.2 191.93-11.35L191.93-11.35Q191.73-11.95 191.48-12.8 191.23-13.65 191.23-14.45L191.23-14.45Q191.23-15 191.41-15.48 191.58-15.95 191.93-16.5L191.93-16.5Q192.93-18.1 194.36-19.55 195.78-21 197.48-22.13 199.18-23.25 200.98-23.88 202.78-24.5 204.48-24.5L204.48-24.5Q205.83-24.5 206.26-23.85 206.68-23.2 206.68-22.05L206.68-22.05Q206.68-20.95 206.41-20.13 206.13-19.3 205.73-18.85 205.33-18.4 204.98-18.4L204.98-18.4Q204.33-18.4 203.48-18.8 202.63-19.2 201.43-19.2L201.43-19.2Q199.38-19.2 197.66-17.88 195.93-16.55 194.98-14.95L194.98-14.95 195.48-17.1Q197.63-11.35 199.43-8.45 201.23-5.55 202.53-4.2L202.53-4.2Q203.38-3.35 204.03-3.03 204.68-2.7 204.68-2.2L204.68-2.2Q204.68-1.55 203.86-0.93 203.03-0.3 201.98 0.13 200.93 0.55 200.18 0.55ZM188.53 0.7L185.03 0.7Q184.13 0.7 183.63-0.4 183.13-1.5 183.18-2.95L183.18-2.95Q183.23-4.65 183.48-7 183.73-9.35 183.98-11.65L183.98-11.65 185.38-23.45Q185.68-25.7 185.53-27.45 185.38-29.2 185.13-30.55 184.88-31.9 184.88-32.85L184.88-32.85Q184.88-33.4 185.76-33.83 186.63-34.25 187.78-34.52 188.93-34.8 189.73-34.8L189.73-34.8Q190.58-34.8 191.23-33.58 191.88-32.35 191.88-30.75L191.88-30.75Q191.88-30.4 191.78-28.8 191.68-27.2 191.38-25.15L191.38-25.15 189.78-13.65Q189.28-10.05 189.08-6.48 188.88-2.9 188.53 0.7L188.53 0.7Z" opacity="1" transform="matrix(1,0,0,1,0,0)" fill="#ffffff" class="wordmark-text-0" data-fill-palette-color="quaternary" id="text-0"></path></svg></g></svg></g><g transform="matrix(1,0,0,1,0,45.85621700796607)"><svg viewBox="0 0 213.15844122715708 13.065258811035413" height="13.065258811035413" width="213.15844122715708"><g transform="matrix(1,0,0,1,0,0)"><svg width="213.15844122715708" viewBox="1.46 -38.38 828.41 50.78" height="13.065258811035413" data-palette-color="#ffffff"><path d="M9.18-2.27L9.18-2.27Q8.13-4.25 7.03-7.29 5.93-10.33 4.93-13.82 3.93-17.31 3.15-20.72 2.37-24.12 1.92-26.9 1.46-29.69 1.46-31.25L1.46-31.25Q1.46-31.88 1.73-32.25L1.73-32.25Q2.29-33.03 3.11-33.87 3.93-34.72 5.05-35.64L5.05-35.64Q5.42-35.94 5.74-35.94L5.74-35.94Q6.05-35.94 6.37-35.64L6.37-35.64Q7.52-34.72 8.33-33.87 9.13-33.03 9.69-32.25L9.69-32.25Q9.96-31.88 9.96-31.18L9.96-31.18 9.96-31.27Q9.96-29.66 10.39-26.92 10.82-24.17 11.51-20.91 12.21-17.65 13.02-14.49 13.84-11.33 14.65-8.86L14.65-8.86 14.79-8.86Q16.11-12.13 17.26-15.97 18.41-19.8 19.41-23.8 20.41-27.81 21.29-31.59L21.29-31.59Q21.56-32.69 22.2-33.12 22.85-33.54 24.24-33.54L24.24-33.54 27.17-33.54Q28.42-33.54 29.03-33.18 29.64-32.81 29.91-31.59L29.91-31.59Q30.54-28.76 31.35-25.61 32.15-22.46 33.02-19.35 33.89-16.24 34.78-13.53 35.67-10.82 36.47-8.86L36.47-8.86 36.62-8.86Q37.65-11.18 38.46-14.33 39.28-17.48 39.86-20.76 40.43-24.05 40.73-26.86 41.04-29.66 41.04-31.27L41.04-31.27 41.04-31.18Q41.04-31.88 41.28-32.25L41.28-32.25Q42.46-33.86 44.51-35.64L44.51-35.64Q44.9-35.94 45.19-35.94L45.19-35.94Q45.46-35.94 45.83-35.64L45.83-35.64Q46.92-34.72 47.71-33.87 48.49-33.03 49.05-32.25L49.05-32.25Q49.29-31.86 49.29-31.2L49.29-31.2Q49.29-29.15 48.83-26.27 48.36-23.39 47.57-20.13 46.78-16.87 45.79-13.62 44.8-10.38 43.71-7.56 42.63-4.74 41.58-2.78L41.58-2.78Q40.7-1.15 40-0.57 39.31 0 38.01 0L38.01 0 35.01 0Q33.91 0 33.17-0.49 32.42-0.98 31.62-2.32L31.62-2.32Q31.01-3.34 30.21-5.2 29.42-7.06 28.63-9.24 27.83-11.43 27.2-13.48 26.56-15.53 26.27-16.94L26.27-16.94Q25.93-18.55 25.7-20.06 25.46-21.56 25.42-22.41L25.42-22.41 25.22-22.41Q25.17-21.56 24.91-20.06 24.66-18.55 24.29-16.94L24.29-16.94Q23.93-15.33 23.32-13.26 22.71-11.18 21.97-9.08 21.24-6.98 20.51-5.2 19.78-3.42 19.14-2.37L19.14-2.37Q18.43-1.17 17.59-0.59 16.75 0 15.26 0L15.26 0 12.5 0Q11.21 0 10.55-0.46 9.89-0.93 9.18-2.27ZM49.29-31.27L49.29-31.27 49.29-31.18 49.29-31.2Q49.29-31.25 49.29-31.27ZM1.46-31.18L1.46-31.27 1.46-31.25 1.46-31.18ZM61.77-16.46L61.77-1.29Q61.77-0.56 61.46-0.28 61.15 0 60.42 0L60.42 0 55.39 0Q54.66 0 54.36-0.28 54.05-0.56 54.05-1.29L54.05-1.29 54.05-34.33Q54.05-34.91 54.29-35.23L54.29-35.23Q55.32-36.57 57.3-38.13L57.3-38.13Q57.64-38.38 57.91-38.38L57.91-38.38Q58.23-38.38 58.52-38.13L58.52-38.13Q59.57-37.33 60.29-36.62 61.01-35.91 61.52-35.23L61.52-35.23Q61.77-34.91 61.77-34.33L61.77-34.33 61.77-22.49 61.86-22.49Q62.4-23.19 63.25-23.91 64.11-24.63 65.54-25.12 66.97-25.61 69.19-25.61L69.19-25.61Q71.43-25.61 73.51-24.68 75.58-23.75 76.9-21.56 78.22-19.36 78.22-15.55L78.22-15.55 78.22-1.29Q78.22-0.56 77.91-0.28 77.61 0 76.88 0L76.88 0 71.85 0Q71.12 0 70.81-0.28 70.51-0.56 70.51-1.29L70.51-1.29 70.51-14.21Q70.51-16.92 69.38-18.15 68.26-19.38 66.33-19.38L66.33-19.38Q64.43-19.38 63.38-18.55 62.33-17.72 61.77-16.46L61.77-16.46ZM97.07 0.61L97.07 0.61Q92.94 0.61 89.89-0.72 86.84-2.05 85.15-4.86 83.47-7.67 83.47-12.11L83.47-12.11Q83.47-18.77 86.88-22.19 90.3-25.61 95.97-25.61L95.97-25.61Q99.65-25.61 102.2-24.29 104.76-22.97 106.09-20.65 107.42-18.33 107.42-15.36L107.42-15.36Q107.42-12.45 105.93-11.3 104.44-10.16 101.58-10.16L101.58-10.16 91.11-10.16Q91.3-7.64 92.95-6.32 94.6-5 97.43-5L97.43-5Q99.68-5 101.03-5.68 102.39-6.35 102.92-6.74L102.92-6.74Q103.39-7.08 103.97-7.06L103.97-7.06Q104.44-7.06 105.31-6.87 106.17-6.69 107.03-6.2L107.03-6.2Q107.64-5.88 107.64-5.32L107.64-5.32Q107.64-5 107.51-4.42L107.51-4.42Q107.44-4.08 107.27-3.43 107.1-2.78 106.83-2.22L106.83-2.22Q106.68-1.95 106.37-1.71L106.37-1.71Q105.88-1.37 104.79-0.81 103.71-0.24 101.83 0.18 99.95 0.61 97.07 0.61ZM91.06-15.16L91.06-15.16 99.02-15.16Q100.26-15.16 100.26-16.31L100.26-16.31Q100.26-18.04 99.18-19.23 98.09-20.41 95.92-20.41L95.92-20.41Q93.55-20.41 92.44-18.9 91.33-17.38 91.06-15.16ZM120.5-22.17L120.5-20.36 120.6-20.36Q122.43-25.44 127.19-25.44L127.19-25.44Q127.8-25.44 128.19-25.38 128.58-25.32 128.73-25.27L128.73-25.27Q129.09-25.15 129.09-24.71L129.09-24.71 129.09-18.82Q129.09-18.07 128.22-18.41L128.22-18.41Q127.92-18.53 127.37-18.66 126.82-18.8 125.85-18.8L125.85-18.8Q123.33-18.8 121.92-16.96 120.5-15.11 120.5-11.94L120.5-11.94 120.5-1.29Q120.5-0.56 120.2-0.28 119.89 0 119.16 0L119.16 0 114.13 0Q113.4 0 113.09-0.28 112.79-0.56 112.79-1.29L112.79-1.29 112.79-21.75Q112.79-22.34 113.03-22.66L113.03-22.66Q113.54-23.34 114.26-24.05 114.98-24.76 116.03-25.56L116.03-25.56Q116.23-25.71 116.42-25.76 116.62-25.81 116.76-25.81L116.76-25.81Q117.11-25.81 117.45-25.56L117.45-25.56Q119.47-23.97 120.28-22.85L120.28-22.85Q120.5-22.56 120.5-22.17L120.5-22.17ZM144.99 0.61L144.99 0.61Q140.86 0.61 137.81-0.72 134.76-2.05 133.07-4.86 131.39-7.67 131.39-12.11L131.39-12.11Q131.39-18.77 134.8-22.19 138.22-25.61 143.89-25.61L143.89-25.61Q147.57-25.61 150.12-24.29 152.68-22.97 154.01-20.65 155.34-18.33 155.34-15.36L155.34-15.36Q155.34-12.45 153.85-11.3 152.36-10.16 149.5-10.16L149.5-10.16 139.03-10.16Q139.22-7.64 140.87-6.32 142.52-5 145.35-5L145.35-5Q147.6-5 148.95-5.68 150.31-6.35 150.84-6.74L150.84-6.74Q151.31-7.08 151.89-7.06L151.89-7.06Q152.36-7.06 153.22-6.87 154.09-6.69 154.95-6.2L154.95-6.2Q155.56-5.88 155.56-5.32L155.56-5.32Q155.56-5 155.43-4.42L155.43-4.42Q155.36-4.08 155.19-3.43 155.02-2.78 154.75-2.22L154.75-2.22Q154.6-1.95 154.29-1.71L154.29-1.71Q153.8-1.37 152.71-0.81 151.63-0.24 149.75 0.18 147.87 0.61 144.99 0.61ZM138.98-15.16L138.98-15.16 146.94-15.16Q148.18-15.16 148.18-16.31L148.18-16.31Q148.18-18.04 147.1-19.23 146.01-20.41 143.84-20.41L143.84-20.41Q141.47-20.41 140.36-18.9 139.25-17.38 138.98-15.16ZM184.38 0.61L184.38 0.61Q176.23 0.61 176.23-7.86L176.23-7.86 176.23-19.31 173.47-19.31Q172.74-19.31 172.46-19.62 172.18-19.92 172.18-20.65L172.18-20.65 172.18-23.66Q172.18-24.39 172.46-24.69 172.74-25 173.47-25L173.47-25 176.23-25 176.23-28.93Q176.23-29.52 176.47-29.83L176.47-29.83Q177.5-31.18 179.48-32.74L179.48-32.74Q179.82-32.98 180.09-32.98L180.09-32.98Q180.38-32.98 180.67-32.74L180.67-32.74Q181.72-31.93 182.44-31.23 183.16-30.52 183.68-29.83L183.68-29.83Q183.92-29.52 183.92-28.93L183.92-28.93 183.92-25 188.24-25Q188.97-25 189.26-24.69 189.54-24.39 189.54-23.66L189.54-23.66 189.54-20.65Q189.54-19.92 189.26-19.62 188.97-19.31 188.24-19.31L188.24-19.31 183.92-19.31 183.92-9.2Q183.92-5.3 186.75-5.3L186.75-5.3Q187.19-5.3 187.56-5.38 187.92-5.47 188.19-5.57L188.19-5.57Q188.71-5.76 188.91-5.71 189.12-5.66 189.29-5.18L189.29-5.18 190.71-1.39Q190.93-0.78 190.41-0.51L190.41-0.51Q190.05-0.34 188.64 0.13 187.24 0.61 184.38 0.61ZM202.5-16.46L202.5-1.29Q202.5-0.56 202.19-0.28 201.89 0 201.15 0L201.15 0 196.13 0Q195.39 0 195.09-0.28 194.78-0.56 194.78-1.29L194.78-1.29 194.78-34.33Q194.78-34.91 195.03-35.23L195.03-35.23Q196.05-36.57 198.03-38.13L198.03-38.13Q198.37-38.38 198.64-38.38L198.64-38.38Q198.96-38.38 199.25-38.13L199.25-38.13Q200.3-37.33 201.02-36.62 201.74-35.91 202.25-35.23L202.25-35.23Q202.5-34.91 202.5-34.33L202.5-34.33 202.5-22.49 202.59-22.49Q203.13-23.19 203.99-23.91 204.84-24.63 206.27-25.12 207.7-25.61 209.92-25.61L209.92-25.61Q212.17-25.61 214.24-24.68 216.32-23.75 217.63-21.56 218.95-19.36 218.95-15.55L218.95-15.55 218.95-1.29Q218.95-0.56 218.65-0.28 218.34 0 217.61 0L217.61 0 212.58 0Q211.85 0 211.54-0.28 211.24-0.56 211.24-1.29L211.24-1.29 211.24-14.21Q211.24-16.92 210.11-18.15 208.99-19.38 207.06-19.38L207.06-19.38Q205.16-19.38 204.11-18.55 203.06-17.72 202.5-16.46L202.5-16.46ZM237.8 0.61L237.8 0.61Q233.67 0.61 230.62-0.72 227.57-2.05 225.88-4.86 224.2-7.67 224.2-12.11L224.2-12.11Q224.2-18.77 227.62-22.19 231.03-25.61 236.7-25.61L236.7-25.61Q240.39-25.61 242.94-24.29 245.49-22.97 246.82-20.65 248.15-18.33 248.15-15.36L248.15-15.36Q248.15-12.45 246.66-11.3 245.17-10.16 242.31-10.16L242.31-10.16 231.84-10.16Q232.04-7.64 233.68-6.32 235.33-5 238.16-5L238.16-5Q240.41-5 241.76-5.68 243.12-6.35 243.66-6.74L243.66-6.74Q244.12-7.08 244.71-7.06L244.71-7.06Q245.17-7.06 246.04-6.87 246.9-6.69 247.76-6.2L247.76-6.2Q248.37-5.88 248.37-5.32L248.37-5.32Q248.37-5 248.25-4.42L248.25-4.42Q248.17-4.08 248-3.43 247.83-2.78 247.56-2.22L247.56-2.22Q247.42-1.95 247.1-1.71L247.1-1.71Q246.61-1.37 245.52-0.81 244.44-0.24 242.56 0.18 240.68 0.61 237.8 0.61ZM231.79-15.16L231.79-15.16 239.75-15.16Q241-15.16 241-16.31L241-16.31Q241-18.04 239.91-19.23 238.82-20.41 236.65-20.41L236.65-20.41Q234.28-20.41 233.17-18.9 232.06-17.38 231.79-15.16ZM275.02-22.17L275.02-20.36 275.12-20.36Q276.95-25.44 281.71-25.44L281.71-25.44Q282.32-25.44 282.71-25.38 283.1-25.32 283.25-25.27L283.25-25.27Q283.62-25.15 283.62-24.71L283.62-24.71 283.62-18.82Q283.62-18.07 282.74-18.41L282.74-18.41Q282.45-18.53 281.9-18.66 281.35-18.8 280.37-18.8L280.37-18.8Q277.86-18.8 276.44-16.96 275.02-15.11 275.02-11.94L275.02-11.94 275.02-1.29Q275.02-0.56 274.72-0.28 274.41 0 273.68 0L273.68 0 268.65 0Q267.92 0 267.61-0.28 267.31-0.56 267.31-1.29L267.31-1.29 267.31-21.75Q267.31-22.34 267.55-22.66L267.55-22.66Q268.07-23.34 268.79-24.05 269.51-24.76 270.56-25.56L270.56-25.56Q270.75-25.71 270.95-25.76 271.14-25.81 271.29-25.81L271.29-25.81Q271.63-25.81 271.97-25.56L271.97-25.56Q274-23.97 274.8-22.85L274.8-22.85Q275.02-22.56 275.02-22.17L275.02-22.17ZM299.51 0.61L299.51 0.61Q295.38 0.61 292.33-0.72 289.28-2.05 287.59-4.86 285.91-7.67 285.91-12.11L285.91-12.11Q285.91-18.77 289.33-22.19 292.75-25.61 298.41-25.61L298.41-25.61Q302.1-25.61 304.65-24.29 307.2-22.97 308.53-20.65 309.86-18.33 309.86-15.36L309.86-15.36Q309.86-12.45 308.37-11.3 306.88-10.16 304.03-10.16L304.03-10.16 293.55-10.16Q293.75-7.64 295.39-6.32 297.04-5 299.87-5L299.87-5Q302.12-5 303.48-5.68 304.83-6.35 305.37-6.74L305.37-6.74Q305.83-7.08 306.42-7.06L306.42-7.06Q306.88-7.06 307.75-6.87 308.62-6.69 309.47-6.2L309.47-6.2Q310.08-5.88 310.08-5.32L310.08-5.32Q310.08-5 309.96-4.42L309.96-4.42Q309.88-4.08 309.71-3.43 309.54-2.78 309.27-2.22L309.27-2.22Q309.13-1.95 308.81-1.71L308.81-1.71Q308.32-1.37 307.24-0.81 306.15-0.24 304.27 0.18 302.39 0.61 299.51 0.61ZM293.5-15.16L293.5-15.16 301.46-15.16Q302.71-15.16 302.71-16.31L302.71-16.31Q302.71-18.04 301.62-19.23 300.53-20.41 298.36-20.41L298.36-20.41Q295.99-20.41 294.88-18.9 293.77-17.38 293.5-15.16ZM327.68-25.61L327.68-25.61Q330.59-25.61 331.9-25.13 333.22-24.66 333.56-24.39L333.56-24.39Q334.1-24.05 334.39-23.51L334.39-23.51Q334.56-23.24 334.78-22.58 335-21.92 335.1-21.14L335.1-21.14Q335.22-20.53 335.13-20.28 335.03-20.02 334.52-19.65L334.52-19.65Q333.93-19.26 333.23-18.96 332.54-18.65 332.1-18.53L332.1-18.53Q331.73-18.43 331.54-18.48 331.34-18.53 331-18.77L331-18.77Q330.61-19.04 329.9-19.37 329.19-19.7 327.95-19.7L327.95-19.7Q326.36-19.7 324.93-18.92 323.51-18.14 322.61-16.58 321.72-15.01 321.72-12.67L321.72-12.67Q321.72-9.16 323.57-7.23 325.41-5.3 328.51-5.3L328.51-5.3Q330.1-5.3 331.15-5.63 332.2-5.96 332.81-6.3L332.81-6.3Q333.3-6.57 333.55-6.43 333.81-6.3 333.95-5.96L333.95-5.96 335.74-1.93Q336.01-1.29 335.44-1.03L335.44-1.03Q334.54-0.56 332.47 0.02 330.39 0.61 327.34 0.61L327.34 0.61Q321.21 0.61 317.55-2.65 313.89-5.91 313.89-12.4L313.89-12.4Q313.89-16.55 315.57-19.51 317.26-22.46 320.36-24.04 323.46-25.61 327.68-25.61ZM338.59-33.2L338.59-33.2Q338.59-33.52 338.79-33.76 338.98-34.01 339.3-34.4L339.3-34.4Q339.98-35.18 340.89-36.05 341.79-36.91 342.72-37.72L342.72-37.72Q343.3-38.18 343.6-38.18L343.6-38.18Q343.89-38.18 344.5-37.72L344.5-37.72Q346.48-36.01 347.87-34.4L347.87-34.4Q348.19-34.03 348.39-33.78 348.6-33.52 348.6-33.2L348.6-33.2Q348.6-32.89 348.39-32.64 348.19-32.4 347.84-31.98L347.84-31.98Q347.18-31.23 346.31-30.36 345.43-29.49 344.5-28.71L344.5-28.71Q344.16-28.42 343.96-28.33 343.77-28.25 343.6-28.25L343.6-28.25Q343.42-28.25 343.24-28.33 343.06-28.42 342.67-28.71L342.67-28.71Q341.69-29.49 340.84-30.36 339.98-31.23 339.3-32.03L339.3-32.03Q338.98-32.42 338.79-32.65 338.59-32.89 338.59-33.2ZM347.43-23.71L347.43-1.29Q347.43-0.56 347.12-0.28 346.82 0 346.09 0L346.09 0 341.06 0Q340.32 0 340.02-0.28 339.71-0.56 339.71-1.29L339.71-1.29 339.71-23.71Q339.71-24.44 340.02-24.72 340.32-25 341.06-25L341.06-25 346.09-25Q346.82-25 347.12-24.72 347.43-24.44 347.43-23.71L347.43-23.71ZM369.62-25.61L369.62-25.61Q373.18-25.61 375.49-24.01 377.8-22.41 378.93-19.62 380.07-16.82 380.07-13.21L380.07-13.21Q380.07-9.3 378.74-6.18 377.41-3.05 374.82-1.22 372.23 0.61 368.4 0.61L368.4 0.61Q366.42 0.61 365.14 0.16 363.86-0.29 363.09-0.92 362.32-1.54 361.88-2.05L361.88-2.05 361.78-2.05 361.78 8.35Q361.78 8.94 361.54 9.25L361.54 9.25Q360.51 10.6 358.53 12.16L358.53 12.16Q358.19 12.4 357.92 12.4L357.92 12.4Q357.63 12.4 357.31 12.16L357.31 12.16Q356.26 11.35 355.54 10.64 354.82 9.94 354.31 9.25L354.31 9.25Q354.07 8.94 354.07 8.35L354.07 8.35 354.07-21.75Q354.07-22.34 354.31-22.66L354.31-22.66Q354.82-23.34 355.54-24.05 356.26-24.76 357.31-25.56L357.31-25.56Q357.63-25.81 357.97-25.81L357.97-25.81Q358.29-25.81 358.63-25.56L358.63-25.56Q359.66-24.76 360.39-24.02 361.12-23.29 361.68-22.51L361.68-22.51 361.81-22.51Q362.22-23.02 363.08-23.75 363.93-24.49 365.5-25.05 367.08-25.61 369.62-25.61ZM366.62-5.62L366.62-5.62Q369.25-5.62 370.7-7.46 372.16-9.3 372.16-12.79L372.16-12.79Q372.16-19.38 366.74-19.38L366.74-19.38Q364.44-19.38 363.34-18.44 362.25-17.5 361.78-16.46L361.78-16.46 361.78-11.16Q361.78-8.79 363-7.2 364.22-5.62 366.62-5.62ZM397.57 0.61L397.57 0.61Q393.44 0.61 390.39-0.72 387.34-2.05 385.66-4.86 383.97-7.67 383.97-12.11L383.97-12.11Q383.97-18.77 387.39-22.19 390.81-25.61 396.47-25.61L396.47-25.61Q400.16-25.61 402.71-24.29 405.26-22.97 406.59-20.65 407.92-18.33 407.92-15.36L407.92-15.36Q407.92-12.45 406.43-11.3 404.94-10.16 402.09-10.16L402.09-10.16 391.61-10.16Q391.81-7.64 393.46-6.32 395.1-5 397.94-5L397.94-5Q400.18-5 401.54-5.68 402.89-6.35 403.43-6.74L403.43-6.74Q403.89-7.08 404.48-7.06L404.48-7.06Q404.94-7.06 405.81-6.87 406.68-6.69 407.53-6.2L407.53-6.2Q408.14-5.88 408.14-5.32L408.14-5.32Q408.14-5 408.02-4.42L408.02-4.42Q407.95-4.08 407.78-3.43 407.6-2.78 407.34-2.22L407.34-2.22Q407.19-1.95 406.87-1.71L406.87-1.71Q406.38-1.37 405.3-0.81 404.21-0.24 402.33 0.18 400.45 0.61 397.57 0.61ZM391.56-15.16L391.56-15.16 399.52-15.16Q400.77-15.16 400.77-16.31L400.77-16.31Q400.77-18.04 399.68-19.23 398.6-20.41 396.42-20.41L396.42-20.41Q394.05-20.41 392.94-18.9 391.83-17.38 391.56-15.16ZM420.25 0.61L420.25 0.61Q417.64 0.61 415.91 0.17 414.19-0.27 413.16-0.89 412.12-1.51 411.53-2.03L411.53-2.03Q411.09-2.44 411.43-2.95L411.43-2.95 413.92-6.64Q414.46-7.42 415.15-6.74L415.15-6.74Q415.85-6.05 417.06-5.41 418.27-4.76 420.08-4.76L420.08-4.76Q421.69-4.76 422.73-5.31 423.76-5.86 423.76-6.91L423.76-6.91Q423.76-7.64 423.3-8.11 422.84-8.57 421.66-9.06 420.49-9.55 418.39-10.3L418.39-10.3Q415.29-11.43 413.71-13.01 412.12-14.6 412.12-17.65L412.12-17.65Q412.12-20.46 413.67-22.22 415.22-23.97 417.65-24.79 420.08-25.61 422.71-25.61L422.71-25.61Q426.06-25.61 427.41-24.99 428.77-24.37 429.16-24.02L429.16-24.02Q429.53-23.71 429.67-23.29L429.67-23.29Q429.99-22.34 430.16-20.78L430.16-20.78Q430.26-19.87 429.7-19.58L429.7-19.58Q429.4-19.41 428.77-19.21 428.13-19.02 427.5-18.87 426.86-18.73 426.55-18.73L426.55-18.73Q426.45-18.73 426.34-18.79 426.23-18.85 425.96-19.09L425.96-19.09Q425.64-19.41 424.87-19.82 424.11-20.24 422.76-20.24L422.76-20.24Q421.44-20.24 420.55-19.81 419.66-19.38 419.66-18.31L419.66-18.31Q419.66-17.14 420.8-16.55 421.93-15.97 424.54-15.04L424.54-15.04Q426.6-14.33 428.12-13.49 429.65-12.65 430.48-11.29 431.31-9.94 431.31-7.64L431.31-7.64Q431.31-4.66 429.68-2.84 428.06-1.03 425.53-0.21 423.01 0.61 420.25 0.61ZM459.75 0.61L459.75 0.61Q451.59 0.61 451.59-7.86L451.59-7.86 451.59-19.31 448.83-19.31Q448.1-19.31 447.82-19.62 447.54-19.92 447.54-20.65L447.54-20.65 447.54-23.66Q447.54-24.39 447.82-24.69 448.1-25 448.83-25L448.83-25 451.59-25 451.59-28.93Q451.59-29.52 451.83-29.83L451.83-29.83Q452.86-31.18 454.84-32.74L454.84-32.74Q455.18-32.98 455.45-32.98L455.45-32.98Q455.74-32.98 456.03-32.74L456.03-32.74Q457.08-31.93 457.8-31.23 458.52-30.52 459.04-29.83L459.04-29.83Q459.28-29.52 459.28-28.93L459.28-28.93 459.28-25 463.6-25Q464.33-25 464.62-24.69 464.9-24.39 464.9-23.66L464.9-23.66 464.9-20.65Q464.9-19.92 464.62-19.62 464.33-19.31 463.6-19.31L463.6-19.31 459.28-19.31 459.28-9.2Q459.28-5.3 462.11-5.3L462.11-5.3Q462.55-5.3 462.92-5.38 463.29-5.47 463.55-5.57L463.55-5.57Q464.07-5.76 464.27-5.71 464.48-5.66 464.65-5.18L464.65-5.18 466.07-1.39Q466.29-0.78 465.78-0.51L465.78-0.51Q465.41-0.34 464.01 0.13 462.6 0.61 459.75 0.61ZM478.86 0.61L478.86 0.61Q470.17 0.61 470.17-9.91L470.17-9.91 470.14-22.31Q470.14-22.9 470.39-23.22L470.39-23.22Q471.41-24.56 473.39-26.12L473.39-26.12Q473.73-26.37 474-26.37L474-26.37Q474.32-26.37 474.61-26.12L474.61-26.12Q475.66-25.32 476.38-24.61 477.1-23.9 477.61-23.22L477.61-23.22Q477.86-22.9 477.86-22.31L477.86-22.31 477.86-10.6Q477.86-5.3 482.06-5.3L482.06-5.3Q484.13-5.3 485.38-6.75 486.62-8.2 486.62-10.69L486.62-10.69 486.62-22.31Q486.62-22.9 486.87-23.22L486.87-23.22Q487.89-24.56 489.87-26.12L489.87-26.12Q490.21-26.37 490.48-26.37L490.48-26.37Q490.8-26.37 491.09-26.12L491.09-26.12Q492.14-25.32 492.86-24.61 493.58-23.9 494.09-23.22L494.09-23.22Q494.34-22.9 494.34-22.31L494.34-22.31 494.34-1.12Q494.34-0.66 494.02-0.33 493.7 0 493.21 0L493.21 0 489.55 0Q489.16 0 488.86-0.11 488.55-0.22 488.28-0.54L488.28-0.54 486.77-2.49 486.6-2.49Q486.21-1.93 485.39-1.2 484.57-0.46 483.02 0.07 481.47 0.61 478.86 0.61ZM508.64-22.17L508.64-20.36 508.74-20.36Q510.57-25.44 515.33-25.44L515.33-25.44Q515.94-25.44 516.33-25.38 516.72-25.32 516.87-25.27L516.87-25.27Q517.24-25.15 517.24-24.71L517.24-24.71 517.24-18.82Q517.24-18.07 516.36-18.41L516.36-18.41Q516.06-18.53 515.51-18.66 514.96-18.8 513.99-18.8L513.99-18.8Q511.47-18.8 510.06-16.96 508.64-15.11 508.64-11.94L508.64-11.94 508.64-1.29Q508.64-0.56 508.34-0.28 508.03 0 507.3 0L507.3 0 502.27 0Q501.54 0 501.23-0.28 500.93-0.56 500.93-1.29L500.93-1.29 500.93-21.75Q500.93-22.34 501.17-22.66L501.17-22.66Q501.68-23.34 502.4-24.05 503.12-24.76 504.17-25.56L504.17-25.56Q504.37-25.71 504.56-25.76 504.76-25.81 504.91-25.81L504.91-25.81Q505.25-25.81 505.59-25.56L505.59-25.56Q507.62-23.97 508.42-22.85L508.42-22.85Q508.64-22.56 508.64-22.17L508.64-22.17ZM545.04-15.55L545.04-15.55 545.04-1.29Q545.04-0.56 544.74-0.28 544.43 0 543.7 0L543.7 0 538.67 0Q537.94 0 537.63-0.28 537.33-0.56 537.33-1.29L537.33-1.29 537.33-14.28Q537.33-16.94 536.2-18.16 535.08-19.38 533.15-19.38L533.15-19.38Q531.22-19.38 530.18-18.55 529.15-17.72 528.59-16.46L528.59-16.46 528.59-1.29Q528.59-0.56 528.28-0.28 527.97 0 527.24 0L527.24 0 522.21 0Q521.48 0 521.18-0.28 520.87-0.56 520.87-1.29L520.87-1.29 520.87-21.75Q520.87-22.34 521.11-22.66L521.11-22.66Q521.63-23.34 522.35-24.05 523.07-24.76 524.12-25.56L524.12-25.56Q524.43-25.81 524.73-25.81L524.73-25.81Q525-25.81 525.34-25.56L525.34-25.56Q526.36-24.76 527.1-24.02 527.83-23.29 528.39-22.51L528.39-22.51 528.51-22.51Q528.93-23.05 529.76-23.77 530.59-24.49 532.09-25.05 533.59-25.61 535.93-25.61L535.93-25.61Q538.23-25.61 540.3-24.68 542.38-23.75 543.71-21.56 545.04-19.36 545.04-15.55ZM564.3-33.2L564.3-33.2Q564.3-33.52 564.49-33.76 564.69-34.01 565.01-34.4L565.01-34.4Q565.69-35.18 566.59-36.05 567.5-36.91 568.42-37.72L568.42-37.72Q569.01-38.18 569.3-38.18L569.3-38.18Q569.6-38.18 570.21-37.72L570.21-37.72Q572.18-36.01 573.58-34.4L573.58-34.4Q573.89-34.03 574.1-33.78 574.31-33.52 574.31-33.2L574.31-33.2Q574.31-32.89 574.1-32.64 573.89-32.4 573.55-31.98L573.55-31.98Q572.89-31.23 572.01-30.36 571.13-29.49 570.21-28.71L570.21-28.71Q569.86-28.42 569.67-28.33 569.47-28.25 569.3-28.25L569.3-28.25Q569.13-28.25 568.95-28.33 568.77-28.42 568.38-28.71L568.38-28.71Q567.4-29.49 566.54-30.36 565.69-31.23 565.01-32.03L565.01-32.03Q564.69-32.42 564.49-32.65 564.3-32.89 564.3-33.2ZM573.14-23.71L573.14-1.29Q573.14-0.56 572.83-0.28 572.53 0 571.79 0L571.79 0 566.76 0Q566.03 0 565.73-0.28 565.42-0.56 565.42-1.29L565.42-1.29 565.42-23.71Q565.42-24.44 565.73-24.72 566.03-25 566.76-25L566.76-25 571.79-25Q572.53-25 572.83-24.72 573.14-24.44 573.14-23.71L573.14-23.71ZM603.94-15.55L603.94-15.55 603.94-1.29Q603.94-0.56 603.64-0.28 603.33 0 602.6 0L602.6 0 597.57 0Q596.84 0 596.53-0.28 596.23-0.56 596.23-1.29L596.23-1.29 596.23-14.28Q596.23-16.94 595.11-18.16 593.98-19.38 592.05-19.38L592.05-19.38Q590.13-19.38 589.09-18.55 588.05-17.72 587.49-16.46L587.49-16.46 587.49-1.29Q587.49-0.56 587.18-0.28 586.88 0 586.15 0L586.15 0 581.12 0Q580.38 0 580.08-0.28 579.77-0.56 579.77-1.29L579.77-1.29 579.77-21.75Q579.77-22.34 580.02-22.66L580.02-22.66Q580.53-23.34 581.25-24.05 581.97-24.76 583.02-25.56L583.02-25.56Q583.34-25.81 583.63-25.81L583.63-25.81Q583.9-25.81 584.24-25.56L584.24-25.56Q585.27-24.76 586-24.02 586.73-23.29 587.29-22.51L587.29-22.51 587.42-22.51Q587.83-23.05 588.66-23.77 589.49-24.49 590.99-25.05 592.49-25.61 594.84-25.61L594.84-25.61Q597.13-25.61 599.21-24.68 601.28-23.75 602.61-21.56 603.94-19.36 603.94-15.55ZM620.42 0.61L620.42 0.61Q612.27 0.61 612.27-7.86L612.27-7.86 612.27-19.31 609.51-19.31Q608.78-19.31 608.49-19.62 608.21-19.92 608.21-20.65L608.21-20.65 608.21-23.66Q608.21-24.39 608.49-24.69 608.78-25 609.51-25L609.51-25 612.27-25 612.27-28.93Q612.27-29.52 612.51-29.83L612.51-29.83Q613.54-31.18 615.51-32.74L615.51-32.74Q615.86-32.98 616.12-32.98L616.12-32.98Q616.42-32.98 616.71-32.74L616.71-32.74Q617.76-31.93 618.48-31.23 619.2-30.52 619.71-29.83L619.71-29.83Q619.96-29.52 619.96-28.93L619.96-28.93 619.96-25 624.28-25Q625.01-25 625.29-24.69 625.57-24.39 625.57-23.66L625.57-23.66 625.57-20.65Q625.57-19.92 625.29-19.62 625.01-19.31 624.28-19.31L624.28-19.31 619.96-19.31 619.96-9.2Q619.96-5.3 622.79-5.3L622.79-5.3Q623.23-5.3 623.59-5.38 623.96-5.47 624.23-5.57L624.23-5.57Q624.74-5.76 624.95-5.71 625.16-5.66 625.33-5.18L625.33-5.18 626.74-1.39Q626.96-0.78 626.45-0.51L626.45-0.51Q626.08-0.34 624.68 0.13 623.28 0.61 620.42 0.61ZM642.81 0.61L642.81 0.61Q636.65 0.61 633.06-2.66 629.48-5.93 629.48-12.4L629.48-12.4Q629.48-19.04 633.2-22.33 636.92-25.61 643.15-25.61L643.15-25.61Q649.15-25.61 652.77-22.38 656.38-19.14 656.38-12.84L656.38-12.84Q656.38-6.27 652.77-2.83 649.15 0.61 642.81 0.61ZM643.05-5.3L643.05-5.3Q645.74-5.3 647.1-6.97 648.47-8.64 648.47-12.7L648.47-12.7Q648.47-16.55 647.09-18.13 645.71-19.7 643-19.7L643-19.7Q640.39-19.7 638.89-18.01 637.39-16.31 637.39-12.5L637.39-12.5Q637.39-8.52 638.81-6.91 640.24-5.3 643.05-5.3ZM697.78-22.44L697.78-22.44Q698.68-23.54 700.58-24.57 702.47-25.61 705.91-25.61L705.91-25.61Q710.79-25.61 712.97-23.1 715.14-20.58 715.14-15.55L715.14-15.55 715.14-1.29Q715.14-0.56 714.83-0.28 714.53 0 713.8 0L713.8 0 708.77 0Q708.04 0 707.73-0.28 707.43-0.56 707.43-1.29L707.43-1.29 707.43-14.28Q707.43-17.02 706.42-18.2 705.42-19.38 703.42-19.38L703.42-19.38Q701.64-19.38 700.6-18.59 699.56-17.8 699.12-16.46L699.12-16.46 699.12-1.29Q699.12-0.56 698.82-0.28 698.51 0 697.78 0L697.78 0 692.75 0Q692.02 0 691.71-0.28 691.41-0.56 691.41-1.29L691.41-1.29 691.41-14.28Q691.41-16.94 690.31-18.16 689.21-19.38 687.43-19.38L687.43-19.38Q685.75-19.38 684.72-18.55 683.69-17.72 683.13-16.46L683.13-16.46 683.13-1.29Q683.13-0.56 682.83-0.28 682.52 0 681.79 0L681.79 0 676.76 0Q676.03 0 675.72-0.28 675.42-0.56 675.42-1.29L675.42-1.29 675.42-21.75Q675.42-22.34 675.66-22.66L675.66-22.66Q676.18-23.34 676.9-24.05 677.62-24.76 678.67-25.56L678.67-25.56Q678.98-25.81 679.28-25.81L679.28-25.81Q679.54-25.81 679.89-25.56L679.89-25.56Q680.91-24.76 681.64-24.02 682.38-23.29 682.94-22.51L682.94-22.51 683.06-22.51Q683.89-23.56 685.65-24.58 687.41-25.61 690.68-25.61L690.68-25.61Q693.8-25.61 695.32-24.67 696.83-23.73 697.78-22.44ZM728.2 0.61L728.2 0.61Q724.61 0.61 722.5-1.4 720.39-3.42 720.39-6.96L720.39-6.96Q720.39-8.79 721.06-10.36 721.73-11.94 723.4-13.15 725.07-14.36 728.09-15.09 731.1-15.82 735.79-15.94L735.79-15.94Q735.79-18.16 734.68-19.14 733.57-20.12 731.35-20.12L731.35-20.12Q729.35-20.12 728.08-19.43 726.81-18.75 726.49-18.51L726.49-18.51Q726.15-18.21 725.66-18.29L725.66-18.29Q725-18.38 724.26-18.63 723.51-18.87 722.66-19.19L722.66-19.19Q722.53-19.24 722.39-19.35 722.24-19.46 722.22-19.68L722.22-19.68Q722.22-19.8 722.24-19.98 722.27-20.17 722.36-20.65L722.36-20.65Q722.46-21.14 722.66-21.86 722.85-22.58 723.02-22.97L723.02-22.97Q723.24-23.39 723.76-23.75L723.76-23.75Q724.17-24.1 726.27-24.85 728.37-25.61 732.35-25.61L732.35-25.61Q743.31-25.61 743.31-14.94L743.31-14.94 743.31-1.12Q743.31-0.66 743.05-0.33 742.8 0 742.19 0L742.19 0 738.53 0Q738.14 0 737.83-0.11 737.53-0.22 737.26-0.54L737.26-0.54 735.74-2.49 735.57-2.49Q734.45-0.85 732.56-0.12 730.66 0.61 728.2 0.61ZM730.88-5.05L730.88-5.05Q733.13-5.05 734.28-6.2 735.43-7.35 735.74-8.57L735.74-8.57 735.74-11.28Q732.35-11.28 730.65-10.75 728.96-10.23 728.39-9.39 727.83-8.54 727.83-7.57L727.83-7.57Q727.83-6.15 728.71-5.6 729.59-5.05 730.88-5.05ZM774.07-22.66L774.07-22.66 774.07-2.86Q774.07 4.27 770.01 8.01 765.94 11.74 758.86 11.74L758.86 11.74Q755.93 11.74 754.22 11.32 752.51 10.89 751.63 10.5L751.63 10.5Q751.07 10.23 750.9 9.94L750.9 9.94Q750.66 9.55 750.35 8.79 750.05 8.03 749.78 7.13L749.78 7.13Q749.71 6.79 749.75 6.62L749.75 6.62Q749.85 6.37 750.12 6.1L750.12 6.1Q750.56 5.66 751.38 5.08 752.2 4.49 752.63 4.32L752.63 4.32Q753.1 4.15 753.49 4.37L753.49 4.37Q754.12 4.71 755.31 5.14 756.49 5.57 758.64 5.57L758.64 5.57Q762.06 5.57 764.21 3.81 766.36 2.05 766.36-1.61L766.36-1.61 766.36-2.49 766.26-2.49Q765.72-1.81 764.87-1.1 764.01-0.39 762.66 0.1 761.3 0.59 759.18 0.59L759.18 0.59Q755.49 0.59 753.14-1.01 750.78-2.61 749.67-5.42 748.56-8.23 748.56-11.82L748.56-11.82Q748.56-15.75 749.85-18.87 751.15-22 754.2-23.82 757.25-25.63 762.55-25.63L762.55-25.63Q765.72-25.63 767.88-25.17 770.04-24.71 771.51-24.02 772.97-23.34 774.07-22.66ZM762.28-19.73L762.28-19.73Q759.45-19.73 757.96-17.82 756.47-15.92 756.47-11.91L756.47-11.91Q756.47-5.64 761.64-5.64L761.64-5.64Q763.67-5.64 764.74-6.47 765.82-7.3 766.36-8.57L766.36-8.57 766.36-18.65Q765.82-19.04 764.84-19.38 763.87-19.73 762.28-19.73ZM779.54-33.2L779.54-33.2Q779.54-33.52 779.73-33.76 779.93-34.01 780.24-34.4L780.24-34.4Q780.93-35.18 781.83-36.05 782.73-36.91 783.66-37.72L783.66-37.72Q784.25-38.18 784.54-38.18L784.54-38.18Q784.83-38.18 785.44-37.72L785.44-37.72Q787.42-36.01 788.81-34.4L788.81-34.4Q789.13-34.03 789.34-33.78 789.55-33.52 789.55-33.2L789.55-33.2Q789.55-32.89 789.34-32.64 789.13-32.4 788.79-31.98L788.79-31.98Q788.13-31.23 787.25-30.36 786.37-29.49 785.44-28.71L785.44-28.71Q785.1-28.42 784.91-28.33 784.71-28.25 784.54-28.25L784.54-28.25Q784.37-28.25 784.19-28.33 784-28.42 783.61-28.71L783.61-28.71Q782.64-29.49 781.78-30.36 780.93-31.23 780.24-32.03L780.24-32.03Q779.93-32.42 779.73-32.65 779.54-32.89 779.54-33.2ZM788.37-23.71L788.37-1.29Q788.37-0.56 788.07-0.28 787.76 0 787.03 0L787.03 0 782 0Q781.27 0 780.96-0.28 780.66-0.56 780.66-1.29L780.66-1.29 780.66-23.71Q780.66-24.44 780.96-24.72 781.27-25 782-25L782-25 787.03-25Q787.76-25 788.07-24.72 788.37-24.44 788.37-23.71L788.37-23.71ZM807.46-25.61L807.46-25.61Q810.37-25.61 811.69-25.13 813.01-24.66 813.35-24.39L813.35-24.39Q813.88-24.05 814.18-23.51L814.18-23.51Q814.35-23.24 814.57-22.58 814.79-21.92 814.89-21.14L814.89-21.14Q815.01-20.53 814.91-20.28 814.81-20.02 814.3-19.65L814.3-19.65Q813.71-19.26 813.02-18.96 812.32-18.65 811.88-18.53L811.88-18.53Q811.52-18.43 811.32-18.48 811.13-18.53 810.78-18.77L810.78-18.77Q810.39-19.04 809.69-19.37 808.98-19.7 807.73-19.7L807.73-19.7Q806.15-19.7 804.72-18.92 803.29-18.14 802.4-16.58 801.51-15.01 801.51-12.67L801.51-12.67Q801.51-9.16 803.35-7.23 805.19-5.3 808.29-5.3L808.29-5.3Q809.88-5.3 810.93-5.63 811.98-5.96 812.59-6.3L812.59-6.3Q813.08-6.57 813.34-6.43 813.59-6.3 813.74-5.96L813.74-5.96 815.52-1.93Q815.79-1.29 815.23-1.03L815.23-1.03Q814.32-0.56 812.25 0.02 810.17 0.61 807.12 0.61L807.12 0.61Q800.99 0.61 797.33-2.65 793.67-5.91 793.67-12.4L793.67-12.4Q793.67-16.55 795.35-19.51 797.04-22.46 800.14-24.04 803.24-25.61 807.46-25.61ZM826.41-12.35L822.26-12.35Q821.21-12.35 821.16-13.53L821.16-13.53 820.23-33.81Q820.18-35.01 821.38-35.01L821.38-35.01 827.33-35.01Q828.53-35.01 828.48-33.81L828.48-33.81 827.51-13.53Q827.46-12.35 826.41-12.35L826.41-12.35ZM819.28-4.22L819.28-4.22Q819.28-4.54 819.49-4.8 819.69-5.05 820.03-5.47L820.03-5.47Q820.77-6.3 821.72-7.21 822.67-8.13 823.67-8.98L823.67-8.98Q824.28-9.47 824.58-9.47L824.58-9.47Q824.87-9.47 825.53-8.98L825.53-8.98Q827.58-7.2 829.12-5.47L829.12-5.47Q829.43-5.05 829.65-4.8 829.87-4.54 829.87-4.22L829.87-4.22Q829.87-3.88 829.64-3.61 829.41-3.34 829.09-2.91L829.09-2.91Q828.38-2.1 827.44-1.21 826.5-0.32 825.53 0.54L825.53 0.54Q824.92 1.05 824.58 1.05L824.58 1.05Q824.31 1.05 823.62 0.54L823.62 0.54Q822.57-0.32 821.67-1.22 820.77-2.12 820.03-2.98L820.03-2.98Q819.69-3.39 819.49-3.64 819.28-3.88 819.28-4.22Z" opacity="1" transform="matrix(1,0,0,1,0,0)" fill="#ffffff" class="slogan-text-1" data-fill-palette-color="quaternary" id="text-1"></path></svg></g></svg></g></svg></g></svg></g><g transform="matrix(1,0,0,1,70.95382329651477,0)"><svg viewBox="0 0 71.25079463412756 81.42947958186006" height="81.42947958186006" width="71.25079463412756"><g><svg xmlns="http://www.w3.org/2000/svg" data-name="Layer 1" viewBox="8 0 112 128" x="0" y="0" height="81.42947958186006" width="71.25079463412756" class="icon-icon-0" data-fill-palette-color="quaternary" id="icon-0"><path d="M118 0H10A2 2 0 0 0 8 2V126A2 2 0 0 0 10 128H118A2 2 0 0 0 120 126V2A2 2 0 0 0 118 0M116 124H12V4H116Z" fill="#ffffff" data-fill-palette-color="quaternary"></path><path d="M44 68.91V91H84V68.91A14 14 0 1 0 74.74 42.53 14 14 0 0 0 53.26 42.53 14 14 0 1 0 44 68.91M48 45.5A10 10 0 0 1 52.91 46.79L54.56 47.72 55.56 46.12A10 10 0 0 1 72.41 46.12L73.41 47.72 75.06 46.79A10 10 0 1 1 81.64 65.35L80 65.63V87H48V65.63L46.33 65.35A10 10 0 0 1 48 45.5" fill="#ffffff" data-fill-palette-color="quaternary"></path><path d="M64 66.5C69 66.5 73 63.42 73 59.5A2 2 0 0 0 69 59.5C69 60.92 66.95 62.5 64 62.5S59 60.92 59 59.5A2 2 0 0 0 55 59.5C55 63.42 59 66.5 64 66.5" fill="#ffffff" data-fill-palette-color="quaternary"></path></svg></g></svg></g><g></g></svg></g></svg></g></svg></g></svg></g><defs></defs></svg><rect width="342.8515585177538" height="342.8515585177538" fill="none" stroke="none" visibility="hidden"></rect></g></svg></g></svg>