<svg xmlns="http://www.w3.org/2000/svg" version="1.1" xmlns:xlink="http://www.w3.org/1999/xlink" xmlns:svgjs="http://svgjs.dev/svgjs" width="128" height="128" viewBox="0 0 128 128"><g transform="matrix(0.8046875,0,0,0.8046875,12.41184074821259,12.814873242367177)"><svg viewBox="0 0 98 98" data-background-color="#ffffff" preserveAspectRatio="xMidYMid meet" height="127" width="128" xmlns="http://www.w3.org/2000/svg" xmlns:xlink="http://www.w3.org/1999/xlink"><g id="tight-bounds" transform="matrix(1,0,0,1,0.08387967645792571,0.08387967645792571)"><svg viewBox="0 0 97.83224064708415 97.83224064708415" height="97.83224064708415" width="97.83224064708415"><g><svg></svg></g><g><svg viewBox="0 0 97.83224064708415 97.83224064708415" height="97.83224064708415" width="97.83224064708415"><g><path d="M0 48.916c0-27.016 21.9-48.916 48.916-48.916 27.016 0 48.916 21.9 48.916 48.916 0 27.016-21.9 48.916-48.916 48.916-27.016 0-48.916-21.9-48.916-48.916zM48.916 93.244c24.481 0 44.328-19.846 44.328-44.328 0-24.481-19.846-44.328-44.328-44.327-24.481 0-44.328 19.846-44.327 44.327 0 24.481 19.846 44.328 44.327 44.328z" data-fill-palette-color="tertiary" fill="#e64980" stroke="transparent"></path><ellipse rx="46.95947551060039" ry="46.95947551060039" cx="48.916120323542074" cy="48.916120323542074" fill="#e64980" stroke="transparent" stroke-width="0" fill-opacity="1" data-fill-palette-color="tertiary"></ellipse></g><g transform="matrix(1,0,0,1,26.655484716093433,23.47539391502934)"><svg viewBox="0 0 44.52127121489728 50.88145281702547" height="50.88145281702547" width="44.52127121489728"><g><svg viewBox="0 0 44.52127121489728 50.88145281702547" height="50.88145281702547" width="44.52127121489728"><g><svg viewBox="0 0 44.52127121489728 50.88145281702547" height="50.88145281702547" width="44.52127121489728"><g id="textblocktransform"><svg viewBox="0 0 44.52127121489728 50.88145281702547" height="50.88145281702547" width="44.52127121489728" id="textblock"><g><svg viewBox="0 0 44.52127121489728 50.88145281702547" height="50.88145281702547" width="44.52127121489728"><g><svg viewBox="0 0 44.52127121489728 50.88145281702547" height="50.88145281702547" width="44.52127121489728"><g><svg xmlns="http://www.w3.org/2000/svg" data-name="Layer 1" viewBox="8 0 112 128" x="0" y="0" height="50.88145281702547" width="44.52127121489728" class="icon-icon-0" data-fill-palette-color="quaternary" id="icon-0"><path d="M118 0H10A2 2 0 0 0 8 2V126A2 2 0 0 0 10 128H118A2 2 0 0 0 120 126V2A2 2 0 0 0 118 0M116 124H12V4H116Z" fill="#ffffff" data-fill-palette-color="quaternary"></path><path d="M44 68.91V91H84V68.91A14 14 0 1 0 74.74 42.53 14 14 0 0 0 53.26 42.53 14 14 0 1 0 44 68.91M48 45.5A10 10 0 0 1 52.91 46.79L54.56 47.72 55.56 46.12A10 10 0 0 1 72.41 46.12L73.41 47.72 75.06 46.79A10 10 0 1 1 81.64 65.35L80 65.63V87H48V65.63L46.33 65.35A10 10 0 0 1 48 45.5" fill="#ffffff" data-fill-palette-color="quaternary"></path><path d="M64 66.5C69 66.5 73 63.42 73 59.5A2 2 0 0 0 69 59.5C69 60.92 66.95 62.5 64 62.5S59 60.92 59 59.5A2 2 0 0 0 55 59.5C55 63.42 59 66.5 64 66.5" fill="#ffffff" data-fill-palette-color="quaternary"></path></svg></g></svg></g></svg></g></svg></g></svg></g><g></g></svg></g></svg></g></svg></g><defs></defs></svg><rect width="97.83224064708415" height="97.83224064708415" fill="none" stroke="none" visibility="hidden"></rect></g></svg></g></svg>